<svg id="Layer_2" data-name="Layer 2" xmlns="http://www.w3.org/2000/svg" viewBox="0 0 358.67 94"><defs><style>.cls-1{fill:#49cdc0;}</style></defs><title>Sleepyfit</title><path class="cls-1" d="M202.5,19.86a40.48,40.48,0,0,0-15.87,3.62l-3.53,1.35V88.61h11V70.87A18.93,18.93,0,0,0,204,73.43c12.16,0,20.59-8.61,20.59-26.71C224.6,29.92,217.51,19.86,202.5,19.86Zm2.26,43.51A16.15,16.15,0,0,1,194.1,60V32c1.8-1.19,3-2,7.83-2,8.7,0,11.67,5.95,11.67,16.8C213.6,58.61,210.55,63.37,204.76,63.37Z"/><rect class="cls-1" x="308.42" y="22.28" width="11" height="48.67"/><rect class="cls-1" x="308.42" y="4.83" width="11" height="10.52"/><path class="cls-1" d="M278.26,20.14V71h11V32.34h10.91V22.28H289.26v-3c0-4.22,2.25-6.75,7.13-6.75a37.83,37.83,0,0,1,4.61.18l.92-10s-3.6-.41-7-.41C284.72,2.29,278.26,8.53,278.26,20.14Z"/><path class="cls-1" d="M352.47,63a20.34,20.34,0,0,1-3.8.15c-4.88,0-7.12-2.52-7.12-6.75V32.34H351.8V21.61H341.55V4.83h-11V55.58c0,11.61,6.46,17.85,16.62,17.85a51.43,51.43,0,0,0,6.22-.38Z"/><path class="cls-1" d="M255.31,41.63c-1.53,4.43-2.93,9.6-4.26,14.31l-5.29-14.22-7.94-19.44H226l19.44,47.56c-.92,2.53-1.64,4.51-2.12,5.73-1,2.55-3.35,6.22-6.12,6.22a12.28,12.28,0,0,1-5.39-1.07l-4.43,9.13a25.22,25.22,0,0,0,10.12,2c6.06,0,12.48-3.74,15.57-12.2,2.69-7.38,14-39.62,20.27-58l-11.14-.06C260.15,27.56,257.73,34.61,255.31,41.63Z"/><path class="cls-1" d="M17.22,35.26c0-3.87,2.47-5.35,6.08-5.35,4.17,0,9.81,1.68,13.36,2.84L39.85,23c-2-.64-9-3.15-16.27-3.15-8.51,0-17.36,5.6-17.36,16.38C6.22,52.45,31,48,31,58.55c0,3.84-4.05,5-8.88,4.82a57,57,0,0,1-13.89-2.6L5.11,70.46a62.43,62.43,0,0,0,17.65,3c12.5,0,19.25-6,19.25-15.66C42,39.89,17.22,42.74,17.22,35.26Z"/><path class="cls-1" d="M100.51,19.86c-14.16,0-23,9.81-23,26.27,0,15.23,6.82,27.3,24,27.3,7.6,0,11.92-1.52,19.07-4l-3.35-9.5c-6.65,2.34-10,3.48-15.72,3.48-7.62,0-12.35-4.86-12.88-11.5h32.75V45.64C121.35,27,111.17,19.86,100.51,19.86Zm-11.81,22c0-5.94,2.22-11.89,11-11.89s11,7,11,11.89Z"/><path class="cls-1" d="M152.59,19.86c-14.16,0-23,9.81-23,26.27,0,15.23,6.82,27.3,24,27.3,7.6,0,11.92-1.52,19.07-4l-3.35-9.5c-6.65,2.34-10,3.48-15.72,3.48-7.63,0-12.36-4.86-12.88-11.5h32.75V45.64C173.43,27,163.25,19.86,152.59,19.86Zm-11.81,22c0-5.94,2.22-11.89,11-11.89s11,7,11,11.89Z"/><path class="cls-1" d="M70,63.15c-4.89,0-7.13-2.52-7.13-6.75V4.77h-11V55.58c0,11.61,6.46,17.85,16.62,17.85a51.43,51.43,0,0,0,6.22-.38l-.91-10A20.49,20.49,0,0,1,70,63.15Z"/></svg>